<svg xmlns="http://www.w3.org/2000/svg" xmlns:xlink="http://www.w3.org/1999/xlink" width="288" height="236" viewBox="0 0 288 236">
  <defs>
    <clipPath id="clip-path">
      <rect id="Rectangle_973" data-name="Rectangle 973" width="288" height="236" transform="translate(44 288)" fill="#fff"/>
    </clipPath>
  </defs>
  <g id="Mask_Group_1" data-name="Mask Group 1" transform="translate(-44 -288)" clip-path="url(#clip-path)">
    <g id="novo-nordisk-logo" transform="translate(44 302.171)">
      <path id="Path_1235" data-name="Path 1235" d="M139.7,204.948V185.967c0-3.231-.051-9.06-11.1-9.06a26.9,26.9,0,0,0-8.579,1.318c-1.866.6-2.475,1.313-2.475,2.255V205c0,.939.27,1.045,1.051,1.045h2.691c.763,0,1.158-.106,1.158-1.1V182.4c0-1.272,2.077-2.526,5.935-2.526,6.424,0,6.424,4.12,6.424,6.706v18.363c0,.992.332,1.1,1.211,1.1h3.028C139.651,205.94,139.7,205.439,139.7,204.948Z" fill="#001965"/>
      <path id="Path_1236" data-name="Path 1236" d="M168.81,191.92c0-6.6-2.1-10.833-5.282-12.973a13.55,13.55,0,0,0-14.3,0c-3.188,2.14-5.275,6.375-5.275,12.973,0,6.542,2.087,10.772,5.275,12.917a13.523,13.523,0,0,0,14.3,0C166.712,202.692,168.81,198.462,168.81,191.92Zm-5.071,0c0,5.172-1.045,8.51-2.579,9.953a6.141,6.141,0,0,1-4.8,1.812,6.079,6.079,0,0,1-4.766-1.812c-1.552-1.443-2.6-4.781-2.6-9.953,0-5.232,1.043-8.57,2.6-10.021a6.109,6.109,0,0,1,4.766-1.8,6.171,6.171,0,0,1,4.8,1.8C162.694,183.35,163.739,186.688,163.739,191.92Z" fill="#001965"/>
      <path id="Path_1237" data-name="Path 1237" d="M188.4,179.764c0-1.984-3.356-2.857-7.146-2.857a21.916,21.916,0,0,0-6.266.873c-1.875.505-2.536,1.317-2.536,2.255v25.079c0,.887.334.932,1.1.932h2.8c.662,0,1-.045,1-.932V182.134a2.526,2.526,0,0,1,2.8-2.483c3.526,0,4.066,2.593,5.942,2.593A2.273,2.273,0,0,0,188.4,179.764Z" fill="#001965"/>
      <path id="Path_1238" data-name="Path 1238" d="M212.6,203.023V168.5c0-.992-.275-1.112-1.1-1.112h-2.7c-.921,0-1.037.339-1.037,1.22v9.966a11.956,11.956,0,0,0-6-1.5c-8.522,0-12.908,8.082-12.908,14.847,0,10.021,5.544,14.962,13.915,14.962C206.867,206.882,212.6,204.837,212.6,203.023Zm-4.838-1.593c0,1.436-2.311,2.195-4.845,2.195-5.326,0-9.122-4.45-9.122-12.088,0-6.661,3.627-11.117,8.686-11.117a7.3,7.3,0,0,1,5.281,1.765Z" fill="#001965"/>
      <path id="Path_1239" data-name="Path 1239" d="M224.522,169.646a2.833,2.833,0,0,0-2.906-2.758,2.876,2.876,0,0,0-3.037,2.922,2.8,2.8,0,0,0,2.966,2.851A2.9,2.9,0,0,0,224.522,169.646Zm-.545,35.414V178.607c0-.879-.222-1.043-1.1-1.043h-2.857c-.935,0-.935.321-.935,1.043v26.454c0,.769,0,.985.823.985h2.969C223.706,206.046,223.977,206,223.977,205.061Z" fill="#001965"/>
      <path id="Path_1240" data-name="Path 1240" d="M272.762,205.439c0-.266-.162-.438-.388-.722l-10.437-13.789-.057-.061a34.588,34.588,0,0,0,9.8-11.6,2.225,2.225,0,0,0,.3-1.1c0-.5-.274-.607-.984-.607h-2.586c-.981,0-1.42-.047-1.7.826a24.078,24.078,0,0,1-9.732,12.2.5.5,0,0,0-.214.339.43.43,0,0,0,.109.278l9.788,14.022c.556.818.771.818,1.643.818h3.74C272.22,206.046,272.762,206,272.762,205.439Zm-16.776-.211V168c0-.782-.375-.782-1.049-.782h-2.9c-.605,0-.936.111-.936.885v37.068c0,.767.165.873.936.873h2.9C255.716,206.046,255.986,206.046,255.986,205.228Z" fill="#001965"/>
      <path id="Path_1241" data-name="Path 1241" d="M247.236,198.356c0-9.245-13.531-7.811-13.531-13.915a4.371,4.371,0,0,1,4.725-4.241c3.2,0,4.026,2.1,5.665,2.1a1.879,1.879,0,0,0,1.984-1.932c0-2.08-3.574-3.293-7.367-3.293-5.007,0-9.393,2.691-9.393,7.8,0,4.728,3.35,6.766,7.36,8.465,3.195,1.332,6.153,2.535,6.153,5.563,0,2.255-1.815,4.833-5.653,4.833-3.856,0-4.961-2.856-6.825-2.856-.932,0-2.094.383-2.094,1.811,0,2.255,4.409,4.19,8.859,4.19C242.064,206.882,247.236,204.242,247.236,198.356Z" fill="#001965"/>
      <path id="Path_1242" data-name="Path 1242" d="M22.146,204.948V185.967c0-3.231-.054-9.06-11.105-9.06a26.94,26.94,0,0,0-8.579,1.318C.594,178.827,0,179.539,0,180.48V205c0,.939.267,1.045,1.037,1.045H3.73c.767,0,1.161-.106,1.161-1.1V182.4c0-1.272,2.086-2.526,5.93-2.526,6.425,0,6.425,4.12,6.425,6.706v18.363c0,.992.341,1.1,1.218,1.1h3.026C22.092,205.94,22.146,205.439,22.146,204.948Z" fill="#001965"/>
      <path id="Path_1243" data-name="Path 1243" d="M51.244,191.92c0-6.6-2.093-10.833-5.277-12.973a12.779,12.779,0,0,0-7.156-2.04,12.743,12.743,0,0,0-7.142,2.04c-3.188,2.14-5.272,6.375-5.272,12.973,0,6.542,2.084,10.772,5.272,12.917a12.777,12.777,0,0,0,7.142,2.045,12.813,12.813,0,0,0,7.156-2.045C49.151,202.692,51.244,198.462,51.244,191.92Zm-5.055,0c0,5.172-1.049,8.51-2.588,9.953a6.126,6.126,0,0,1-4.79,1.812,6.135,6.135,0,0,1-4.781-1.812c-1.534-1.443-2.577-4.781-2.577-9.953,0-5.232,1.043-8.57,2.577-10.021a6.166,6.166,0,0,1,4.781-1.8,6.156,6.156,0,0,1,4.79,1.8C45.141,183.35,46.19,186.688,46.19,191.92Z" fill="#001965"/>
      <path id="Path_1244" data-name="Path 1244" d="M101.471,191.92c0-6.6-2.088-10.833-5.282-12.973a13.547,13.547,0,0,0-14.3,0c-3.182,2.14-5.273,6.375-5.273,12.973,0,6.542,2.091,10.772,5.273,12.917a13.52,13.52,0,0,0,14.3,0C99.383,202.692,101.471,198.462,101.471,191.92Zm-5.052,0c0,5.172-1.045,8.51-2.594,9.953a7.224,7.224,0,0,1-9.57,0c-1.538-1.443-2.579-4.781-2.579-9.953,0-5.232,1.041-8.57,2.579-10.021a7.247,7.247,0,0,1,9.57,0C95.375,183.35,96.42,186.688,96.42,191.92Z" fill="#001965"/>
      <path id="Path_1245" data-name="Path 1245" d="M76.163,178.125c0-.562-.44-.562-.716-.562H72.7c-.391.051-.5.217-.661.773l-7.149,20.943-7.426-20.831c-.272-.775-.381-.885-1.209-.885H52.91c-.227,0-.773,0-.773.662a2.065,2.065,0,0,0,.22.772l9.948,26.176c.276.656.387.828.819.873h2.153c.65,0,.771-.045,1.047-.818L75.943,179A2.682,2.682,0,0,0,76.163,178.125Z" fill="#001965"/>
      <path id="Path_1246" data-name="Path 1246" d="M276.855,159.04H278.6c.932,0,2.409,0,2.409,1.414,0,1.434-1.571,1.434-2.293,1.434h-1.86Zm-1.534,8.179h1.534V163.2h.9c1.222,0,1.68.473,2.827,2.526l.842,1.491h1.864l-1.154-1.834c-1.177-1.895-1.654-2.182-2.2-2.385v-.045a2.674,2.674,0,0,0,2.7-2.646,2.447,2.447,0,0,0-.91-1.894,4.822,4.822,0,0,0-3.127-.676h-3.277Zm3.868-13.691a8.818,8.818,0,1,0,8.81,8.82A8.817,8.817,0,0,0,279.19,153.529ZM279.17,155a7.352,7.352,0,1,1-7.349,7.347A7.347,7.347,0,0,1,279.17,155Z" fill="#001965"/>
      <path id="Path_1247" data-name="Path 1247" d="M203.753,116.542c-.225-5.789.726-31.179-3.8-39.31-5.413-9.723-16.291-8.765-21.309-8.344-6.653.564-18.249,2.229-31.2,2.285-17.816.056-36.542-6.465-39.324-7.248a94.954,94.954,0,0,1-12.5-4.63c-2.632-1.24-1.289-1.8-.124-2.368,5.762-2.887,10.6-5.931,13.592-10.807,2.293-3.732,1.44-4.9-1.116-2.838-.538.418-1.5,1.207-2.849,2.105-4.172,3.045-11.773,6.379-23.334,3.289C69.463,45.389,65.352,33.853,64.382,31.2s-2.323-2.842-2.323,1.037c0,9.784,4.334,15.711,5.777,17.4s2.116,3.345,1.319,4.322C67.5,55.988,65.228,58.7,64.6,60.4a13.824,13.824,0,0,0-.172,2.143c-.309,2.161-2.526,4.368-5.2,7.743-1.526,1.935-.594,3.973.692,5.4,1.552,1.706,3.222,3.928,3.864,4.285,2.323,1.315,4.078.395,6.134,1.045s5.2,1.542,7.341,5.375c3.1,5.563,6.484,14.233,12.516,21.451,2.7,3.206,2.685,9,2.7,10.949.173,16.839-8.682,32.438-14.31,42.538-1.335,2.4-1.063,4.375.733,4.39,2.049.023,4.431,0,8.867,0,3.7,0,2.1-2.1,2.905-3.457.575-.97,2.616.263,2.879-3.158.038-.582.079-1.089.38-3.3,1.913-13.69,8.581-34.073,12.739-36.7,6.127,4,13.464,10.656,15.644,24.18a42.091,42.091,0,0,1,.669,11.322,40.539,40.539,0,0,1-1.09,6.7c-1.158,3.661-.218,4.45,1.542,4.383,0,0,8.22.012,9.385,0,3.722-.008,1.891-2.225,2.756-3.352.627-.808,2.112-.264,1.826-2.406-2.345-11.931-8.4-22.064-11.1-33.878-1.924-8.364,3.108-13.645,7.375-14.9,6.743-2.01,15.96,1.3,17.143,1.974,1.09.621,1.2.883,2.068.169,7.607-6.277,11.137-3.222,11.325-3.033.879.834,1.474,5.262,1.53,6.145,1.041,20.794-20.091,40.783-23.8,45.312-1.646,2.011-.722,4.026.925,4.022,1.394-.012,8.352.018,9.788-.034,3.563-.116,1.7-2.165,2.567-3.285.537-.684,1.692-.1,2.274-1.677,2.819-7.517,8.607-21.954,20.692-31.719,1.053-.846,2.049-2.969,2.932-7.781a45.3,45.3,0,0,1,1.24-4.781c6.792,8.822,7.619,24.638-3.89,45.405-1.2,2.162-.451,3.853.921,3.853.808,0,7.093.061,9.039,0,2.827-.1,2.35-1.5,2.35-2.759,0-.586-.049-1.617,2.157-1.617,1.252,0,2.717.023,3.139.023.706,0,4.626.075,5.995-.083,1.489-.169,1.639-1.692,1.666-3.7C203.753,154.618,203.914,120.7,203.753,116.542ZM174.326,73.136a4.472,4.472,0,0,1,4.435,1.278c2.064,2.473,2.932,7.067,2.44,9.848-.339,1.879-3.046,2.65-3.372.654a21.587,21.587,0,0,0-4.387-9.494C172.066,73.888,172.551,73.474,174.326,73.136Zm-37.009,1.045c4.5.214,6.706.45,9.449.413,3.346-.03,7.217-.124,8.691-.255,2.661-.226,4.36.564,5.243,2.65.838,2.026,3.845,10.347-1.128,12.667-6.363,2.98-15.6,3.364-20.173,2.01-1.706-.5-4.45-1.134-4.4-4.555a74.075,74.075,0,0,0-.406-9.6C134.333,75.485,133.972,74.012,137.317,74.181ZM117.249,73.7c-.173-2.143.251-2.256,2.958-1.812,2.819.458,2.737,1.2,2.774,2.857.142,6.811-1.624,11.246-3.955,12.524-1.3.726-2.932.369-2.969-.958C116.035,85.314,117.8,80.2,117.249,73.7ZM83.378,89.28c-3.405-5.356-4.356-6.972-6.976-9.04-5.217-4.123-9.878-1.578-11.927-4.029C62.3,73.587,60.811,72.8,62.848,70.3c1.489-1.8,2.541-3.484,3.255-4.36.947-1.173.777-3.8,1.165-4.875a20.115,20.115,0,0,1,5.326-6.439c2.684-2.161,6.3.031,13.445,4.2,3.946,2.311,7.938,4.348,9.848,5.514,2.135,1.315.553,3.421-.575,5.15a130.913,130.913,0,0,0-9.171,18.09C85.2,90.013,84.524,91.065,83.378,89.28Zm107.944,6.6a90.727,90.727,0,0,1-1.59,9.265c-2.007,9.21-6.769,5.526-8.273,4.578a37.226,37.226,0,0,0-17.291-5.845c-15.388-1.391-24.048-.35-28.619,1.191-1.368.451-12.908,3.721-13.114,15.573-.063,3.5-1.053,3.165-2.688,1.924a187.562,187.562,0,0,0-19.4-13.126c-3.759-2.229-7.021-5.367-8.194-7.454-1.917-3.35-4.522-8.483-1.578-16.407A75.019,75.019,0,0,1,97.3,72.159c3.71-5.5,3.334-5.563,10.532-3.24,6.461,2.075,6.128,2.864,6.21,6.04A46.412,46.412,0,0,1,112.764,86.7a3.5,3.5,0,0,0,3.33,4.353c10.149.27,10.352-13.787,10.352-13.825.218-3.27-1.023-3.928,2.23-3.615,2.424.233,2.867,2.292,3.213,6,.132,1.364.038,6.672.038,8.116s.165,5.22,5.141,6.577c8.232,2.255,19.685.455,24.383-2.326,2.755-1.636,4.522-3.5,4.161-7.451a36.277,36.277,0,0,0-1.631-8.017c-.624-1.522-.519-2.593.767-2.751,6.194-.838,8.976,5.6,11.1,13.464.676,2.549,4.206,2.383,6,.639,1.747-1.7,2.763-4.4,1.5-9.442a14.677,14.677,0,0,0-1.465-3.759c-.451-.752-.568-1.428,1.124-1.428C194.292,73.166,191.462,94.087,191.323,95.876Zm7.055,25.053a.906.906,0,0,1-1.65.582c-.781-.977-2.51-11.472-3.138-14.761-.65-3.289.428-6.552.853-10.806a107.19,107.19,0,0,0,.5-11.419c.154-1.677,1.169-1.526,2.011.8C199.43,92.306,198.374,120.346,198.378,120.929Z" fill="#001965"/>
      <path id="Path_1248" data-name="Path 1248" d="M71.41,63.337c2.143,3.628,6.42-2.406,6.045-3.526S69.286,59.717,71.41,63.337Z" fill="#001965"/>
      <path id="Path_1249" data-name="Path 1249" d="M90.486.776A22.241,22.241,0,1,0,112.72,23.013,22.239,22.239,0,0,0,90.486.776Zm.879,34.585A14.969,14.969,0,1,1,106.33,20.393,14.979,14.979,0,0,1,91.366,35.36Z" fill="#001965"/>
    </g>
  </g>
</svg>
